<svg width="21" height="21" viewBox="0 0 21 21" fill="none" xmlns="http://www.w3.org/2000/svg">
<path d="M16.1118 5.05664V13.1816C16.1118 13.4303 16.013 13.6687 15.8372 13.8446C15.6614 14.0204 15.4229 14.1191 15.1743 14.1191C14.9256 14.1191 14.6872 14.0204 14.5114 13.8446C14.3356 13.6687 14.2368 13.4303 14.2368 13.1816V7.32227L5.83756 15.7199C5.66144 15.896 5.42257 15.995 5.1735 15.995C4.92443 15.995 4.68556 15.896 4.50944 15.7199C4.33332 15.5438 4.23438 15.3049 4.23438 15.0559C4.23437 14.8068 4.33332 14.5679 4.50944 14.3918L12.9087 5.99414H7.04928C6.80064 5.99414 6.56219 5.89537 6.38637 5.71955C6.21055 5.54374 6.11178 5.30528 6.11178 5.05664C6.11178 4.808 6.21055 4.56954 6.38637 4.39373C6.56219 4.21791 6.80064 4.11914 7.04928 4.11914H15.1743C15.4229 4.11914 15.6614 4.21791 15.8372 4.39373C16.013 4.56954 16.1118 4.808 16.1118 5.05664Z" fill="#06BE16"/>
</svg>
