<svg width="12" height="12" viewBox="0 0 12 12" fill="none" xmlns="http://www.w3.org/2000/svg">
<path d="M11.9399 1V9.125C11.9399 9.37364 11.8411 9.6121 11.6653 9.78791C11.4895 9.96373 11.251 10.0625 11.0024 10.0625C10.7538 10.0625 10.5153 9.96373 10.3395 9.78791C10.1637 9.6121 10.0649 9.37364 10.0649 9.125V3.26563L1.66569 11.6633C1.48957 11.8394 1.2507 11.9383 1.00163 11.9383C0.752555 11.9383 0.513684 11.8394 0.337564 11.6633C0.161443 11.4872 0.0625 11.2483 0.0625 10.9992C0.0625 10.7501 0.161443 10.5113 0.337564 10.3352L8.73678 1.9375H2.87741C2.62877 1.9375 2.39031 1.83873 2.21449 1.66291C2.03868 1.4871 1.93991 1.24864 1.93991 1C1.93991 0.75136 2.03868 0.512903 2.21449 0.337087C2.39031 0.161272 2.62877 0.0625 2.87741 0.0625H11.0024C11.251 0.0625 11.4895 0.161272 11.6653 0.337087C11.8411 0.512903 11.9399 0.75136 11.9399 1Z" fill="#124D04"/>
</svg>
