<svg width="390" height="215" viewBox="0 0 390 215" fill="none" xmlns="http://www.w3.org/2000/svg">
<path opacity="0.32" d="M389.995 214.994L325 214.994L309.065 201.818L294.354 189.655L280.73 178.391L268.079 167.928L256.296 158.187L245.299 149.095L235.008 140.586L225.359 132.611L216.298 125.116M390 214.994L390 0.00608203M0.0246944 179.162L0.0246912 35.8323M0.0246944 179.162L0.0246952 214.994L65.0049 214.994L80.9105 201.818L95.5964 189.655L109.196 178.391L121.827 167.928L133.59 158.187L144.567 149.095L154.839 140.586L164.468 132.611L173.514 125.116L226.964 125.116L240.554 132.611M0.0246944 179.162L23.8954 170.373L45.9341 162.259L66.3432 154.745L85.2955 147.772L102.944 141.278L119.418 135.215L134.829 129.54L149.278 124.224L162.853 119.229L162.853 89.7628L149.278 82.2795M0.0246904 4.39695e-10L389.995 6.94517e-06M325.005 215L65.0198 215M23.8905 13.17L23.8905 201.824L366.095 201.824L344.031 189.661M344.031 189.661L45.9291 189.661L45.9291 25.3144M344.031 189.661L344.031 25.3144L366.095 13.164L23.8954 13.164L0.0246904 0.00607509L0.0246912 35.8384L23.8954 44.6083L45.9341 52.7045L66.3432 60.2L85.2955 67.1613L102.944 73.6431L119.418 79.694L134.829 85.3566L149.278 90.6671L162.853 95.656M45.9291 25.3144L23.8905 13.164M45.9291 25.3144L294.349 25.3144L309.06 13.164L324.995 0.00608087M323.603 178.397L66.3382 178.397L66.3382 36.5667M304.63 167.934L85.2906 167.934L85.2906 47.0117M389.995 0.0121571L366.1 13.1701L366.1 44.6144L344.036 52.7106L323.607 60.206L304.635 67.1674L286.967 73.6492L270.474 79.7001L255.042 85.3627L240.574 90.6732L226.984 95.662L226.984 119.235L240.574 124.23L255.042 129.546L270.474 135.221L286.967 141.284L304.635 147.778L323.607 154.751L344.036 162.265L366.1 170.38L366.1 201.824L389.995 215M286.957 158.187L102.934 158.187L102.934 56.7345M344.031 25.3084L323.603 36.5545M323.603 36.5545L323.603 178.385L344.031 189.649M323.603 36.5545L66.3382 36.5545L45.9291 25.3084M389.995 35.8324L366.1 44.6023L366.1 170.373L389.995 179.162M65.0198 0.00607624L80.9253 13.164L95.6112 25.3144L109.211 36.5606L121.842 47.0056L133.605 56.7345L144.582 65.8139L154.853 74.3108L164.483 82.2734L173.529 89.7567L216.288 89.7567L225.349 82.2734L234.998 74.3108L245.289 65.8139L256.287 56.7345L268.069 47.0056L280.72 36.5606L294.344 25.3144L344.026 25.3144M323.598 36.5606L304.625 47.0056L304.625 167.928L323.598 178.391M66.3283 36.5606L85.2807 47.0056L304.621 47.0056M259.995 214.994L252.02 201.818L244.657 189.655L237.838 178.391L231.507 167.928L225.611 158.187L220.105 149.095L214.955 140.586L210.125 132.611L205.587 125.116M130 214.994L137.945 201.818L145.283 189.655L152.078 178.391L158.389 167.928L164.265 158.187L169.752 149.095L174.882 140.586L179.692 132.611L184.21 125.116M119.408 65.8139L119.408 149.095L270.454 149.095L255.022 140.586M162.843 113.329L149.268 115.83L134.82 118.494L119.408 121.335L102.934 124.369L85.2857 127.622L66.3333 131.112L45.9242 134.875L23.8855 138.935L0.0148174 143.335M162.833 101.549L149.259 99.0608L134.81 96.4085L119.398 93.5803L102.924 90.5579L85.2758 87.3169L66.3234 83.8393L45.9143 80.0947L23.8756 76.0525L0.00493968 71.6706M304.611 47.0056L286.942 56.7345L286.942 158.187L304.611 167.928M85.2708 47.0056L102.92 56.7345L286.947 56.7345M194.995 214.994L194.98 201.818L194.965 189.655L194.956 178.391L194.946 167.928L194.936 158.187L194.926 149.095L194.916 140.586L194.906 132.611L194.896 125.116M162.828 107.436L149.254 107.436L134.805 107.448L119.393 107.448L102.92 107.46L85.2708 107.46L66.3185 107.473L45.9094 107.473L23.8707 107.491L2.40419e-06 107.503M286.937 56.7345L270.444 65.8139M270.444 65.8139L270.444 149.095L286.937 158.187M270.444 65.8139L119.383 65.8139M102.91 56.7345L119.383 65.8139M119.383 65.8139L134.795 74.3108L255.017 74.3108L270.449 65.8139M255.022 140.586L255.022 74.3108L240.554 82.2734L149.249 82.2734L134.8 74.3108L134.8 140.586L255.022 140.586ZM149.268 132.611L162.843 125.116L162.843 119.223M240.583 82.2795L240.583 132.617M240.583 132.617L255.052 140.592M240.583 132.617L149.278 132.617L134.829 140.592L119.418 149.101L102.944 158.193L85.2955 167.934L66.3432 178.397L45.9341 189.661L23.8954 201.824L0.0246952 215M149.268 82.2795L149.268 132.617M389.99 143.335L366.095 138.935L344.031 134.875L323.603 131.112L304.63 127.622L286.962 124.369L270.469 121.335L255.037 118.494L240.569 115.83L226.979 113.329M389.99 71.6645L366.095 76.0466L344.031 80.0886L323.603 83.8332L304.63 87.3109L286.962 90.5518L270.469 93.5743L255.037 96.4024L240.569 99.0547L226.979 101.543M205.602 89.7567L210.14 82.2734L214.97 74.3108L220.12 65.8139L225.626 56.7345L231.522 47.0056L237.853 36.5606L244.672 25.3144L252.035 13.164L260.01 0.00607972M184.23 89.7567L179.712 82.2734L174.902 74.3108L169.771 65.8139L164.285 56.7345L158.409 47.0056L152.098 36.5606L145.303 25.3144L137.965 13.164L130.02 0.0060774M390 107.503L366.105 107.491L344.041 107.491L323.612 107.473L304.64 107.473L286.972 107.46L270.479 107.46L255.047 107.448L240.579 107.448L226.989 107.436M194.921 89.7567L194.931 82.2734L194.941 74.3108L194.951 65.8139L194.961 56.7345L194.97 47.0056L194.98 36.5606L194.99 25.3144L195.005 13.164L195.02 0.00607856M226.994 89.7567L226.994 95.6499M162.858 89.7567L173.549 89.7567M216.308 89.7567L226.999 89.7567L240.588 82.2734M226.999 119.223L226.999 125.116M173.549 125.116L162.858 125.116" stroke="url(#paint0_linear_210_96381)" stroke-linecap="round" stroke-linejoin="round"/>
<defs>
<linearGradient id="paint0_linear_210_96381" x1="-3.40967" y1="-16.6209" x2="438.86" y2="79.2719" gradientUnits="userSpaceOnUse">
<stop stop-color="#27A60A"/>
<stop offset="0.5" stop-color="#60A052"/>
<stop offset="1" stop-color="#999999"/>
</linearGradient>
</defs>
</svg>
