<svg width="16" height="15" viewBox="0 0 16 15" fill="none" xmlns="http://www.w3.org/2000/svg">
<path d="M15.281 13.7296C15.3507 13.7992 15.406 13.882 15.4437 13.973C15.4814 14.0641 15.5008 14.1616 15.5008 14.2602C15.5008 14.3587 15.4814 14.4563 15.4437 14.5474C15.406 14.6384 15.3507 14.7211 15.281 14.7908C15.2114 14.8605 15.1286 14.9158 15.0376 14.9535C14.9465 14.9912 14.849 15.0106 14.7504 15.0106C14.6519 15.0106 14.5543 14.9912 14.4632 14.9535C14.3722 14.9158 14.2895 14.8605 14.2198 14.7908L8.00042 8.57049L1.78104 14.7908C1.64031 14.9315 1.44944 15.0106 1.25042 15.0106C1.05139 15.0106 0.860523 14.9315 0.719792 14.7908C0.579062 14.6501 0.5 14.4592 0.5 14.2602C0.5 14.0612 0.579062 13.8703 0.719792 13.7296L6.9401 7.51018L0.719792 1.29081C0.579062 1.15008 0.5 0.959206 0.5 0.760183C0.5 0.56116 0.579062 0.370288 0.719792 0.229558C0.860523 0.0888271 1.05139 0.00976563 1.25042 0.00976562C1.44944 0.00976562 1.64031 0.0888271 1.78104 0.229558L8.00042 6.44987L14.2198 0.229558C14.3605 0.0888271 14.5514 0.00976562 14.7504 0.00976562C14.9494 0.00976563 15.1403 0.0888271 15.281 0.229558C15.4218 0.370288 15.5008 0.56116 15.5008 0.760183C15.5008 0.959206 15.4218 1.15008 15.281 1.29081L9.06073 7.51018L15.281 13.7296Z" fill="white"/>
</svg>
