<svg width="18" height="18" viewBox="0 0 18 18" fill="none" xmlns="http://www.w3.org/2000/svg">
<path d="M7.60547 9.69431C7.9037 10.093 8.28419 10.4229 8.72113 10.6616C9.15807 10.9004 9.64124 11.0423 10.1379 11.0779C10.6345 11.1134 11.133 11.0418 11.5995 10.8678C12.066 10.6938 12.4896 10.4214 12.8416 10.0693L14.9249 7.98598C15.5574 7.33111 15.9074 6.45402 15.8995 5.54361C15.8916 4.63321 15.5264 3.76233 14.8826 3.11855C14.2388 2.47477 13.368 2.1096 12.4576 2.10169C11.5472 2.09378 10.6701 2.44376 10.0152 3.07626L8.82075 4.26376" stroke="white" stroke-width="1.66667" stroke-linecap="round" stroke-linejoin="round"/>
<path d="M10.384 8.30455C10.0858 7.90585 9.70526 7.57595 9.26832 7.33723C8.83138 7.09851 8.34821 6.95655 7.85159 6.92098C7.35496 6.88541 6.85649 6.95707 6.38999 7.13109C5.92349 7.3051 5.49987 7.57741 5.14787 7.92955L3.06454 10.0129C2.43204 10.6677 2.08206 11.5448 2.08998 12.4552C2.09789 13.3656 2.46306 14.2365 3.10683 14.8803C3.75061 15.5241 4.62149 15.8893 5.53189 15.8972C6.4423 15.9051 7.31939 15.5551 7.97426 14.9226L9.16176 13.7351" stroke="white" stroke-width="1.66667" stroke-linecap="round" stroke-linejoin="round"/>
</svg>
