<svg width="137" height="118" viewBox="0 0 137 118" fill="none" xmlns="http://www.w3.org/2000/svg">
<g clip-path="url(#clip0_292_9014)">
<mask id="mask0_292_9014" style="mask-type:luminance" maskUnits="userSpaceOnUse" x="10" y="0" width="21" height="20">
<path d="M30.5 0H10.5V20H30.5V0Z" fill="white"/>
</mask>
<g mask="url(#mask0_292_9014)">
<path d="M20.5 20C20.2105 10.5262 19.9738 10.291 10.5 10C19.9738 9.71048 20.209 9.4738 20.5 0C20.7895 9.4738 21.0262 9.70903 30.5 10C21.0262 10.291 20.791 10.5233 20.5 20Z" fill="#9BC1A0"/>
</g>
</g>
<g filter="url(#filter0_ii_292_9014)">
<circle cx="70.5" cy="62" r="47" fill="url(#paint0_linear_292_9014)"/>
</g>
<path d="M53 63.5L63.5 77L94 49" stroke="#A9F398" stroke-width="8" stroke-linecap="round" stroke-linejoin="round"/>
<mask id="mask1_292_9014" style="mask-type:alpha" maskUnits="userSpaceOnUse" x="23" y="15" width="95" height="94">
<circle cx="70.5" cy="62" r="47" fill="url(#paint1_linear_292_9014)"/>
</mask>
<g mask="url(#mask1_292_9014)">
<g style="mix-blend-mode:plus-lighter" opacity="0.12">
<rect x="71.6875" y="14.2402" width="7.56196" height="76.1785" transform="rotate(-34.1116 71.6875 14.2402)" fill="white"/>
</g>
<g style="mix-blend-mode:plus-lighter" opacity="0.12">
<rect x="81.4453" y="9.63086" width="5.52437" height="72.8183" transform="rotate(-34.1116 81.4453 9.63086)" fill="white"/>
</g>
</g>
<g clip-path="url(#clip1_292_9014)">
<mask id="mask2_292_9014" style="mask-type:luminance" maskUnits="userSpaceOnUse" x="112" y="9" width="25" height="24">
<path d="M136.5 9H112.5V33H136.5V9Z" fill="white"/>
</mask>
<g mask="url(#mask2_292_9014)">
<path d="M124.5 33C124.153 21.6314 123.869 21.3492 112.5 21C123.869 20.6526 124.151 20.3686 124.5 9C124.847 20.3686 125.131 20.6508 136.5 21C125.131 21.3492 124.849 21.628 124.5 33Z" fill="#9BC1A0"/>
</g>
</g>
<g clip-path="url(#clip2_292_9014)">
<mask id="mask3_292_9014" style="mask-type:luminance" maskUnits="userSpaceOnUse" x="0" y="86" width="33" height="32">
<path d="M32.5 86H0.5V118H32.5V86Z" fill="white"/>
</mask>
<g mask="url(#mask3_292_9014)">
<path d="M16.5 118C16.0368 102.842 15.6581 102.466 0.5 102C15.6581 101.537 16.0344 101.158 16.5 86C16.9632 101.158 17.3419 101.534 32.5 102C17.3419 102.466 16.9656 102.837 16.5 118Z" fill="#9BC1A0"/>
</g>
</g>
<defs>
<filter id="filter0_ii_292_9014" x="21.5" y="15" width="96" height="96" filterUnits="userSpaceOnUse" color-interpolation-filters="sRGB">
<feFlood flood-opacity="0" result="BackgroundImageFix"/>
<feBlend mode="normal" in="SourceGraphic" in2="BackgroundImageFix" result="shape"/>
<feColorMatrix in="SourceAlpha" type="matrix" values="0 0 0 0 0 0 0 0 0 0 0 0 0 0 0 0 0 0 127 0" result="hardAlpha"/>
<feOffset dx="4" dy="-4"/>
<feComposite in2="hardAlpha" operator="arithmetic" k2="-1" k3="1"/>
<feColorMatrix type="matrix" values="0 0 0 0 0 0 0 0 0 0 0 0 0 0 0 0 0 0 0.2 0"/>
<feBlend mode="normal" in2="shape" result="effect1_innerShadow_292_9014"/>
<feColorMatrix in="SourceAlpha" type="matrix" values="0 0 0 0 0 0 0 0 0 0 0 0 0 0 0 0 0 0 127 0" result="hardAlpha"/>
<feOffset dx="-2" dy="2"/>
<feGaussianBlur stdDeviation="2"/>
<feComposite in2="hardAlpha" operator="arithmetic" k2="-1" k3="1"/>
<feColorMatrix type="matrix" values="0 0 0 0 1 0 0 0 0 1 0 0 0 0 1 0 0 0 0.45 0"/>
<feBlend mode="normal" in2="effect1_innerShadow_292_9014" result="effect2_innerShadow_292_9014"/>
</filter>
<linearGradient id="paint0_linear_292_9014" x1="70.5" y1="15" x2="70.5" y2="109" gradientUnits="userSpaceOnUse">
<stop stop-color="#124D04"/>
<stop offset="1" stop-color="#124D04"/>
</linearGradient>
<linearGradient id="paint1_linear_292_9014" x1="70.5" y1="15" x2="70.5" y2="109" gradientUnits="userSpaceOnUse">
<stop stop-color="#A9F398"/>
<stop offset="1" stop-color="#A9F398"/>
</linearGradient>
<clipPath id="clip0_292_9014">
<rect width="20" height="20" fill="white" transform="translate(10.5)"/>
</clipPath>
<clipPath id="clip1_292_9014">
<rect width="24" height="24" fill="white" transform="translate(112.5 9)"/>
</clipPath>
<clipPath id="clip2_292_9014">
<rect width="32" height="32" fill="white" transform="translate(0.5 86)"/>
</clipPath>
</defs>
</svg>
