<svg width="1280" height="832" viewBox="0 0 1280 832" fill="none" xmlns="http://www.w3.org/2000/svg">
<path opacity="0.06" d="M0.0361474 831.99L0.0361535 693.333L78.48 659.338L150.89 627.956L217.953 598.891L280.245 571.901L338.238 546.766L392.365 523.305L443.023 501.351L490.501 480.767L535.125 461.436M0.0361474 832L1279.96 832M213.364 0.0526262L1066.67 0.0526635M213.364 0.0526262L0.0361838 0.0526169L0.0361778 138.677L78.4801 172.609L150.89 203.939L217.953 232.951L280.245 259.899L338.238 284.992L392.365 308.41L443.023 330.322L490.501 350.865L535.125 370.164L535.125 484.19L490.501 513.182M213.364 0.0526262L265.684 50.9768L313.993 97.9926L358.725 141.532L400.242 181.964L438.903 219.614L475 254.758L508.784 287.636L540.437 318.46L570.174 347.42L745.598 347.42L790.15 318.46M1280 0.0526729L1280 831.99M-1.44522e-05 693.344L9.79168e-06 138.709M1201.59 50.9663L78.4439 50.9662L78.4439 781.002L150.854 733.934M150.854 733.934L150.854 97.9821L1129.29 97.9821M150.854 733.934L1129.29 733.934L1201.63 781.002L1201.63 50.9768L1279.96 0.0526729L1066.64 0.0526635L1014.42 50.9768L966.224 97.9927L921.6 141.532L880.156 181.964L841.567 219.614L805.543 254.758L771.83 287.636L740.214 318.46L710.513 347.42M1129.29 97.9821L1201.63 50.9663M1129.29 97.9821L1129.29 627.945L1201.63 659.328L1279.96 693.323M217.916 690.352L217.916 141.522L1062.3 141.522M280.209 649.878L280.209 181.953L1000.12 181.953M1279.93 831.99L1201.59 781.013L1014.39 781.013L966.188 733.944L921.564 690.363L880.12 649.889L841.531 612.196L805.506 577.011L771.794 544.09L740.178 513.224L710.477 484.233L570.138 484.233L540.4 513.224L508.748 544.09L474.964 577.011L438.867 612.196L400.206 649.889L358.689 690.363L313.957 733.944L265.647 781.013L78.4439 781.013L-2.05126e-05 831.99M338.238 612.175L338.238 219.593L942.232 219.593M1129.33 733.934L1062.37 690.352M1062.37 690.352L217.989 690.352L150.926 733.934M1062.37 690.352L1062.37 141.522L1129.33 97.9821M1066.67 831.99L1014.46 781.013L265.684 781.013L213.364 831.99M1279.96 138.709L1201.63 172.641L1129.29 203.971L1062.34 232.983L1000.15 259.93L942.232 285.024L888.177 308.442L837.592 330.354L790.186 350.896L745.634 370.196L745.634 461.415L790.186 480.746L837.592 501.33L888.177 523.284L942.232 546.745L1000.15 571.88L1062.34 598.87L1129.29 627.935L1129.29 733.923M1062.34 690.342L1000.15 649.868L280.245 649.868L217.953 690.342M1062.34 141.5L1000.15 181.932L1000.15 649.857M0.0361596 554.656L78.4801 537.643L150.89 521.936L217.953 507.387L280.245 493.882L338.238 481.304L392.365 469.558L443.023 458.57L490.501 448.267L535.125 438.586M0.0361717 277.333L78.4801 294.283L150.89 309.938L217.953 324.433L280.245 337.897L338.238 350.433L392.365 362.137L443.023 373.082L490.501 383.343L535.125 392.982M888.177 254.737L392.365 254.737L392.365 576.968L443.023 544.048M605.295 347.399L590.408 318.439L574.546 287.615L557.636 254.737L539.57 219.593L520.202 181.943L499.426 141.511L477.024 97.9716L452.851 50.9557L426.655 0.0315664M675.429 347.378L690.243 318.418L706.033 287.594L722.87 254.716L740.864 219.572L760.16 181.922L780.864 141.49L803.157 97.9505L827.222 50.9347L853.31 0.0105159M1000.15 649.836L942.232 612.143L338.238 612.143L280.245 649.836M1000.15 181.911L942.232 219.562L942.232 612.154M0.0361656 415.989L78.4801 415.958L150.89 415.926L217.953 415.905L280.245 415.884L338.238 415.863L392.365 415.842L443.023 415.821L490.501 415.8L535.125 415.779M640.379 347.367L640.379 318.408L640.307 287.583L640.307 254.705L640.236 219.562L640.236 181.911L640.163 141.479L640.163 97.94L640.055 50.9241L639.982 -2.79761e-05M942.232 612.133L888.177 576.947M888.177 576.947L392.365 576.947L338.238 612.133M888.177 576.947L888.177 254.684M942.232 219.541L888.177 254.684M888.177 254.684L837.592 287.562L837.592 544.037L888.177 576.958M443.023 544.048L837.592 544.048L790.186 513.182L790.186 318.397L837.592 287.573L443.023 287.573L443.023 544.048ZM490.501 318.439L535.125 347.399L570.21 347.399M790.15 513.245L490.465 513.245M490.465 513.245L442.987 544.111M490.465 513.245L490.465 318.46L442.987 287.636L392.329 254.758L338.202 219.614L280.209 181.964L217.916 141.532L150.854 97.9926L78.4439 50.9768L1.58525e-05 0.0526169M790.15 318.439L490.465 318.439M426.655 831.979L452.851 781.002L477.024 733.934L499.426 690.352L520.202 649.878L539.569 612.186L557.636 577L574.546 544.079L590.408 513.213L605.295 484.222M853.346 831.979L827.257 781.002L803.193 733.934L780.9 690.352L760.196 649.878L740.901 612.186L722.907 577L706.069 544.079L690.279 513.213L675.465 484.222M745.634 438.618L790.186 448.299L837.592 458.602L888.177 469.589L942.232 481.336L1000.15 493.914L1062.34 507.419L1129.29 521.967L1201.63 537.674L1279.96 554.688M745.634 393.024L790.186 383.385L837.592 373.124L888.177 362.179L942.232 350.475L1000.15 337.939L1062.34 324.476L1129.29 309.98L1201.63 294.326L1279.96 277.376M639.982 832L640.055 781.023L640.055 733.955L640.163 690.373L640.163 649.899L640.236 612.207L640.236 577.021L640.307 544.101L640.307 513.234L640.379 484.243M745.634 415.831L790.186 415.853L837.592 415.874L888.177 415.895L942.232 415.916L1000.15 415.937L1062.34 415.958L1129.29 415.979L1201.63 416.011L1279.96 416.042M745.634 484.254L710.55 484.254M745.634 347.43L745.634 370.238M745.634 461.457L745.634 484.264L790.186 513.255M570.21 484.264L535.125 484.264M535.125 370.238L535.125 347.43" stroke="url(#paint0_linear_473_6783)" stroke-linecap="round" stroke-linejoin="round"/>
<defs>
<linearGradient id="paint0_linear_473_6783" x1="1378.95" y1="-7.27396" x2="1302.66" y2="974.662" gradientUnits="userSpaceOnUse">
<stop stop-color="#27A60A"/>
<stop offset="0.5" stop-color="#60A052"/>
<stop offset="1" stop-color="#999999"/>
</linearGradient>
</defs>
</svg>
