<svg width="14" height="14" viewBox="0 0 14 14" fill="none" xmlns="http://www.w3.org/2000/svg">
<g clip-path="url(#clip0_292_8951)">
<path d="M11.6667 5.25H6.41667C5.77233 5.25 5.25 5.77233 5.25 6.41667V11.6667C5.25 12.311 5.77233 12.8333 6.41667 12.8333H11.6667C12.311 12.8333 12.8333 12.311 12.8333 11.6667V6.41667C12.8333 5.77233 12.311 5.25 11.6667 5.25Z" stroke="#1C7807" stroke-width="1.16667" stroke-linecap="round" stroke-linejoin="round"/>
<path d="M2.91797 8.74935H2.33464C2.02522 8.74935 1.72847 8.62643 1.50968 8.40764C1.29089 8.18885 1.16797 7.8921 1.16797 7.58268V2.33268C1.16797 2.02326 1.29089 1.72652 1.50968 1.50772C1.72847 1.28893 2.02522 1.16602 2.33464 1.16602H7.58464C7.89406 1.16602 8.1908 1.28893 8.40959 1.50772C8.62839 1.72652 8.7513 2.02326 8.7513 2.33268V2.91602" stroke="#1C7807" stroke-width="1.16667" stroke-linecap="round" stroke-linejoin="round"/>
</g>
<defs>
<clipPath id="clip0_292_8951">
<rect width="14" height="14" fill="white"/>
</clipPath>
</defs>
</svg>
