<svg width="390" height="844" viewBox="0 0 390 844" fill="none" xmlns="http://www.w3.org/2000/svg">
<path opacity="0.06" d="M-2.98891 843.989L-2.9889 703.333L21.0958 668.848L43.328 637.013L63.9182 607.529L83.044 580.15L100.85 554.652L117.468 530.853L133.022 508.582L147.599 487.701L161.3 468.091M-2.98891 844L389.989 844M62.5093 0.0534182L324.502 0.0534297M62.5093 0.0534182L-2.98887 0.0534154L-2.98888 140.677L21.0958 175.099L43.328 206.88L63.9182 236.311L83.0441 263.647L100.85 289.102L117.468 312.859L133.022 335.087L147.599 355.925L161.3 375.503L161.3 491.174L147.599 520.583M62.5093 0.0534182L78.5732 51.7121L93.4058 99.406L107.14 143.573L119.887 184.588L131.757 222.782L142.84 258.432L153.213 291.785L162.931 323.053L172.061 352.431L225.922 352.431L239.601 323.053M390 0.0534326L390 843.989M-3.00001 703.344L-2.99999 140.709M365.926 51.7014L21.0847 51.7014L21.0847 792.267L43.3169 744.519M43.3169 744.519L43.3169 99.3953L343.728 99.3953M43.3169 744.519L343.728 744.519L365.937 792.267L365.937 51.7121L389.989 0.0534326L324.491 0.0534297L308.46 51.7121L293.661 99.406L279.96 143.573L267.235 184.588L255.387 222.782L244.327 258.432L233.976 291.785L224.269 323.053L215.15 352.431M343.728 99.3953L365.937 51.7014M343.728 99.3953L343.728 637.002L365.937 668.837L389.989 703.323M63.9071 700.309L63.9071 143.563L323.159 143.563M83.0329 659.251L83.0329 184.578L304.067 184.578M389.978 843.989L365.926 792.277L308.449 792.277L293.65 744.53L279.949 700.32L267.224 659.262L255.376 621.026L244.316 585.333L233.965 551.937L224.258 520.626L215.139 491.217L172.05 491.217L162.92 520.626L153.202 551.937L142.829 585.333L131.746 621.026L119.876 659.262L107.129 700.32L93.3947 744.53L78.5621 792.277L21.0847 792.277L-3.00002 843.989M100.85 621.004L100.85 222.761L286.295 222.761M343.739 744.519L323.182 700.309M323.182 700.309L63.9293 700.309L43.3391 744.519M323.182 700.309L323.182 143.563L343.739 99.3953M324.502 843.989L308.471 792.277L78.5732 792.277L62.5093 843.989M389.989 140.709L365.937 175.131L343.728 206.912L323.171 236.343L304.078 263.679L286.295 289.134L269.698 312.891L254.167 335.119L239.612 355.957L225.933 375.535L225.933 468.07L239.612 487.679L254.167 508.561L269.698 530.831L286.295 554.63L304.078 580.128L323.171 607.507L343.728 636.991L343.728 744.508M323.171 700.298L304.078 659.241L83.044 659.241L63.9182 700.298M323.171 143.541L304.078 184.556L304.078 659.23M-2.9889 562.656L21.0958 545.397L43.328 529.464L63.9182 514.706L83.044 501.005L100.85 488.246L117.468 476.33L133.022 465.184L147.599 454.733L161.3 444.912M-2.98889 281.333L21.0958 298.528L43.328 314.408L63.9182 329.113L83.044 342.77L100.85 355.487L117.468 367.36L133.022 378.463L147.599 388.872L161.3 398.65M269.698 258.411L117.468 258.411L117.468 585.29L133.022 551.895M182.844 352.409L178.274 323.032L173.403 291.763L168.212 258.411L162.665 222.761L156.718 184.567L150.339 143.552L143.461 99.3846L136.039 51.6907L127.996 0.0320481M204.378 352.388L208.926 323.011L213.774 291.742L218.944 258.389L224.469 222.739L230.393 184.546L236.75 143.531L243.594 99.3633L250.983 51.6693L258.993 0.0106808M304.078 659.209L286.295 620.972L100.85 620.972L83.044 659.209M304.078 184.535L286.295 222.728L286.295 620.983M-2.98889 421.989L21.0958 421.957L43.328 421.925L63.9182 421.904L83.044 421.882L100.85 421.861L117.468 421.84L133.022 421.818L147.599 421.797L161.3 421.776M193.616 352.377L193.616 323L193.594 291.731L193.594 258.379L193.572 222.728L193.572 184.535L193.55 143.52L193.55 99.3526L193.517 51.6586L193.495 -8.58952e-06M286.295 620.962L269.698 585.269M269.698 585.269L117.468 585.269L100.85 620.962M269.698 585.269L269.698 258.357M286.295 222.707L269.698 258.357M269.698 258.357L254.167 291.71L254.167 551.884L269.698 585.279M133.022 551.895L254.167 551.895L239.612 520.583L239.612 322.989L254.167 291.721L133.022 291.721L133.022 551.895ZM147.599 323.032L161.3 352.409L172.072 352.409M239.601 520.647L147.588 520.647M147.588 520.647L133.011 551.959M147.588 520.647L147.588 323.053L133.011 291.785L117.457 258.432L100.839 222.782L83.0329 184.588L63.9071 143.573L43.3169 99.406L21.0847 51.7121L-2.99998 0.0534154M239.601 323.032L147.588 323.032M127.996 843.979L136.039 792.267L143.461 744.519L150.339 700.309L156.718 659.251L162.665 621.015L168.212 585.322L173.403 551.927L178.274 520.615L182.844 491.206M259.004 843.979L250.994 792.267L243.605 744.519L236.761 700.309L230.404 659.251L224.48 621.015L218.955 585.322L213.785 551.927L208.937 520.615L204.389 491.206M225.933 444.944L239.612 454.765L254.167 465.216L269.698 476.362L286.295 488.278L304.078 501.038L323.171 514.738L343.728 529.496L365.937 545.429L389.989 562.688M225.933 398.693L239.612 388.915L254.167 378.506L269.698 367.403L286.295 355.53L304.078 342.813L323.171 329.156L343.728 314.451L365.937 298.571L389.989 281.376M193.495 844L193.517 792.288L193.517 744.541L193.55 700.33L193.55 659.273L193.572 621.036L193.572 585.343L193.594 551.948L193.594 520.637L193.616 491.227M225.933 421.829L239.612 421.85L254.167 421.872L269.698 421.893L286.295 421.915L304.078 421.936L323.171 421.957L343.728 421.979L365.937 422.011L389.989 422.043M225.933 491.238L215.161 491.238M225.933 352.441L225.933 375.578M225.933 468.112L225.933 491.249L239.612 520.658M172.072 491.249L161.3 491.249M161.3 375.578L161.3 352.441" stroke="url(#paint0_linear_292_8907)" stroke-linecap="round" stroke-linejoin="round"/>
<defs>
<linearGradient id="paint0_linear_292_8907" x1="420.382" y1="-7.37887" x2="179.044" y2="932.782" gradientUnits="userSpaceOnUse">
<stop stop-color="#27A60A"/>
<stop offset="0.5" stop-color="#60A052"/>
<stop offset="1" stop-color="#999999"/>
</linearGradient>
</defs>
</svg>
